<svg width="700" height="180" viewBox="0 0 700 180" xmlns="http://www.w3.org/2000/svg">
  <rect width="700" height="180" fill="#f5f6f8"/>

  <!-- Student Concept Node -->
  <g transform="translate(50, 50)">
    <rect x="0" y="0" width="150" height="80" rx="10" fill="#ffffff" stroke="#e5e7eb" stroke-width="1"/>
    <rect x="0" y="0" width="3" height="80" rx="1.5" fill="#4caf50"/>

    <text x="75" y="35" text-anchor="middle" font-family="Inter, sans-serif" font-size="14" font-weight="600" fill="#1a1a2e">Student</text>

    <g transform="translate(20, 50)">
      <rect x="0" y="0" width="28" height="22" rx="3" fill="#e8f4ff"/>
      <text x="14" y="15" text-anchor="middle" font-family="Inter, sans-serif" font-size="11" font-weight="600" fill="#4a9eff">8</text>
      <text x="38" y="14" font-family="Inter, sans-serif" font-size="9" font-weight="500" fill="#666666" letter-spacing="0.3">ACADEMIC</text>
    </g>
  </g>

  <!-- Relationship Line -->
  <g>
    <path d="M 200 90 C 280 90, 380 90, 460 90" fill="none" stroke="#4caf50" stroke-width="1.5"/>

    <!-- Source end: Zero or Many (○⋔) - reversed direction -->
    <line x1="200" y1="90" x2="222" y2="80" stroke="#4caf50" stroke-width="1.5"/>
    <line x1="200" y1="90" x2="222" y2="90" stroke="#4caf50" stroke-width="1.5"/>
    <line x1="200" y1="90" x2="222" y2="100" stroke="#4caf50" stroke-width="1.5"/>
    <circle cx="228" cy="90" r="4" fill="#f5f6f8" stroke="#4caf50" stroke-width="1.5"/>

    <!-- Target end: Zero or Many (○⋔) -->
    <circle cx="450" cy="90" r="4" fill="#f5f6f8" stroke="#4caf50" stroke-width="1.5"/>
    <line x1="456" y1="90" x2="478" y2="80" stroke="#4caf50" stroke-width="1.5"/>
    <line x1="456" y1="90" x2="478" y2="90" stroke="#4caf50" stroke-width="1.5"/>
    <line x1="456" y1="90" x2="478" y2="100" stroke="#4caf50" stroke-width="1.5"/>

    <!-- Verb label (transparent background, centered on line) -->
    <text x="330" y="94" text-anchor="middle" font-family="Inter, sans-serif" font-size="11" font-weight="500" fill="#1a1a2e">enrolls_in</text>
  </g>

  <!-- Course Concept Node -->
  <g transform="translate(500, 50)">
    <rect x="0" y="0" width="150" height="80" rx="10" fill="#ffffff" stroke="#e5e7eb" stroke-width="1"/>
    <rect x="0" y="0" width="3" height="80" rx="1.5" fill="#4caf50"/>

    <text x="75" y="35" text-anchor="middle" font-family="Inter, sans-serif" font-size="14" font-weight="600" fill="#1a1a2e">Course</text>

    <g transform="translate(20, 50)">
      <rect x="0" y="0" width="28" height="22" rx="3" fill="#e8f4ff"/>
      <text x="14" y="15" text-anchor="middle" font-family="Inter, sans-serif" font-size="11" font-weight="600" fill="#4a9eff">4</text>
      <text x="38" y="14" font-family="Inter, sans-serif" font-size="9" font-weight="500" fill="#666666" letter-spacing="0.3">ACADEMIC</text>
    </g>
  </g>

  <text x="350" y="155" text-anchor="middle" font-family="Inter, sans-serif" font-size="10" fill="#888888">Both ends: ○⋔ (zero or many)</text>
  <text x="350" y="170" text-anchor="middle" font-family="Inter, sans-serif" font-size="10" fill="#888888">"Students can enroll in many Courses, Courses can have many Students"</text>
</svg>
