<svg width="700" height="180" viewBox="0 0 700 180" xmlns="http://www.w3.org/2000/svg">
  <!-- Background (canvas color) -->
  <rect width="700" height="180" fill="#f5f6f8"/>

  <!-- Customer Concept Node -->
  <g transform="translate(50, 50)">
    <rect x="0" y="0" width="150" height="80" rx="10" fill="#ffffff" stroke="#e5e7eb" stroke-width="1"/>
    <rect x="0" y="0" width="3" height="80" rx="1.5" fill="#4a9eff"/>

    <text x="75" y="35" text-anchor="middle" font-family="Inter, sans-serif" font-size="14" font-weight="600" fill="#1a1a2e">Customer</text>

    <g transform="translate(20, 50)">
      <rect x="0" y="0" width="28" height="22" rx="3" fill="#e8f4ff"/>
      <text x="14" y="15" text-anchor="middle" font-family="Inter, sans-serif" font-size="11" font-weight="600" fill="#4a9eff">3</text>
      <text x="38" y="14" font-family="Inter, sans-serif" font-size="9" font-weight="500" fill="#666666" letter-spacing="0.3">SALES</text>
    </g>
  </g>

  <!-- Relationship Line with Crow's Foot -->
  <g>
    <!-- Main line -->
    <path d="M 200 90 C 280 90, 380 90, 460 90" fill="none" stroke="#4caf50" stroke-width="1.5"/>

    <!-- Source end: Exactly One (||) -->
    <line x1="205" y1="84" x2="205" y2="96" stroke="#4caf50" stroke-width="1.5"/>
    <line x1="211" y1="84" x2="211" y2="96" stroke="#4caf50" stroke-width="1.5"/>

    <!-- Target end: Zero or Many (○⋔) -->
    <circle cx="450" cy="90" r="4" fill="#f5f6f8" stroke="#4caf50" stroke-width="1.5"/>
    <line x1="456" y1="90" x2="478" y2="80" stroke="#4caf50" stroke-width="1.5"/>
    <line x1="456" y1="90" x2="478" y2="90" stroke="#4caf50" stroke-width="1.5"/>
    <line x1="456" y1="90" x2="478" y2="100" stroke="#4caf50" stroke-width="1.5"/>

    <!-- Verb label (transparent background, centered on line) -->
    <text x="330" y="94" text-anchor="middle" font-family="Inter, sans-serif" font-size="11" font-weight="500" fill="#1a1a2e">places</text>
  </g>

  <!-- Order Concept Node -->
  <g transform="translate(500, 50)">
    <rect x="0" y="0" width="150" height="80" rx="10" fill="#ffffff" stroke="#e5e7eb" stroke-width="1"/>
    <rect x="0" y="0" width="3" height="80" rx="1.5" fill="#4a9eff"/>

    <text x="75" y="35" text-anchor="middle" font-family="Inter, sans-serif" font-size="14" font-weight="600" fill="#1a1a2e">Order</text>

    <g transform="translate(20, 50)">
      <rect x="0" y="0" width="28" height="22" rx="3" fill="#e8f4ff"/>
      <text x="14" y="15" text-anchor="middle" font-family="Inter, sans-serif" font-size="11" font-weight="600" fill="#4a9eff">5</text>
      <text x="38" y="14" font-family="Inter, sans-serif" font-size="9" font-weight="500" fill="#666666" letter-spacing="0.3">SALES</text>
    </g>
  </g>

  <!-- Legend -->
  <text x="350" y="155" text-anchor="middle" font-family="Inter, sans-serif" font-size="10" fill="#888888">Source: ││ (exactly one) — Target: ○⋔ (zero or many)</text>
  <text x="350" y="170" text-anchor="middle" font-family="Inter, sans-serif" font-size="10" fill="#888888">"One Customer places zero or many Orders"</text>
</svg>
